HIERARCHY
ROOT hip
{
	OFFSET 0.000000 0.000000 0.000000 
	CHANNELS 6 Xposition Yposition Zposition Xrotation Zrotation Yrotation
	JOINT abdomen
	{
		OFFSET 0.000000 3.402643 0.000000 
		CHANNELS 3 Xrotation Zrotation Yrotation
		JOINT chest
		{
			OFFSET 0.000000 8.438565 -0.680529 
			CHANNELS 3 Xrotation Zrotation Yrotation
			JOINT neck
			{
				OFFSET 0.000000 10.207942 -0.272212 
				CHANNELS 3 Xrotation Zrotation Yrotation
				JOINT head
				{
					OFFSET 0.000000 3.130431 0.000000 
					CHANNELS 3 Xrotation Zrotation Yrotation
					End Site
					{
						OFFSET 0.000000 3.130435 0.000000 
					}
				}
			}
			JOINT lCollar
			{
				OFFSET 3.470700 6.669187 -0.816635 
				CHANNELS 3 Yrotation Zrotation Xrotation
				JOINT lShldr
				{
					OFFSET 3.198488 0.000000 0.000000 
					CHANNELS 3 Zrotation Yrotation Xrotation
					JOINT lForeArm
					{
						OFFSET 10.139888 0.000000 0.000000 
						CHANNELS 3 Yrotation Zrotation Xrotation
						JOINT lHand
						{
							OFFSET 8.370511 0.000000 0.000000 
							CHANNELS 3 Zrotation Yrotation Xrotation
							End Site
							{
								OFFSET 4.083176 0.000000 0.000000 
							}
						}
					}
				}
			}
			JOINT rCollar
			{
				OFFSET -3.470700 6.669187 -0.816635 
				CHANNELS 3 Yrotation Zrotation Xrotation
				JOINT rShldr
				{
					OFFSET -3.198488 0.000000 0.000000 
					CHANNELS 3 Zrotation Yrotation Xrotation
					JOINT rForeArm
					{
						OFFSET -10.139888 0.000000 0.000000 
						CHANNELS 3 Yrotation Zrotation Xrotation
						JOINT rHand
						{
							OFFSET -8.370511 0.000000 0.000000 
							CHANNELS 3 Zrotation Yrotation Xrotation
							End Site
							{
								OFFSET -4.083176 0.000000 0.000000 
							}
						}
					}
				}
			}
		}
	}
	JOINT lThigh
	{
		OFFSET 5.308129 -1.633274 1.361059 
		CHANNELS 3 Xrotation Zrotation Yrotation
		JOINT lShin
		{
			OFFSET -2.041588 -20.007561 0.000000 
			CHANNELS 3 Xrotation Zrotation Yrotation
			JOINT lFoot
			{
				OFFSET 0.000000 -19.190928 -1.224953 
				CHANNELS 3 Xrotation Yrotation Zrotation
				End Site
				{
					OFFSET 0.000000 -2.449906 4.627600 
				}
			}
		}
	}
	JOINT rThigh
	{
		OFFSET -5.308129 -1.633274 1.361059 
		CHANNELS 3 Xrotation Zrotation Yrotation
		JOINT rShin
		{
			OFFSET 2.041588 -20.007561 0.000000 
			CHANNELS 3 Xrotation Zrotation Yrotation
			JOINT rFoot
			{
				OFFSET 0.000000 -19.190928 -1.224953 
				CHANNELS 3 Xrotation Yrotation Zrotation
				End Site
				{
					OFFSET 0.000000 -2.449906 4.627600 
				}
			}
		}
	}
}
MOTION
Frames: 20
Frame Time: 0.005000
-8.558110 49.974522 61.672020 -34.469807 -6.850597 159.260590 0.000000 0.000000 0.000000 26.389057 -0.734843 5.856018 17.898127 -9.242052 -4.118387 -33.653233 8.485423 -6.698129 -24.061665 -12.654570 -3.057227 -34.201233 -48.362957 0.827279 -2.150272 -5.627102 0.095145 6.240821 -0.220186 25.812536 22.763449 14.241848 -3.362824 39.306538 32.810860 25.177002 27.523954 -8.078784 2.032336 -6.225690 6.265286 0.286741 -47.438416 13.846792 5.131787 26.879961 -4.331341 -0.842039 -13.462044 10.579359 6.260533 -54.168598 1.650656 -0.678730 45.003906 10.480011 6.520317 -12.810920 -16.067665 11.915900 
-8.665064 49.953873 61.636833 -34.788574 -7.341632 158.588348 0.000000 0.000000 0.000000 26.830153 -0.949885 5.915972 17.960514 -9.494043 -3.999265 -34.037781 8.383042 -6.532576 -24.103266 -12.461488 -3.016846 -33.022671 -48.560883 -0.239842 -2.708007 -5.452698 0.084330 6.329466 -0.375939 25.455774 23.238529 13.858461 -3.342863 38.860611 33.613327 24.816040 27.185457 -8.308053 2.062730 -6.186878 6.343626 -0.140647 -48.033413 13.904782 5.168976 27.550671 -4.336103 -0.653908 -13.677938 10.867036 6.426673 -54.539974 2.344008 -0.346473 43.586536 10.148063 6.388128 -13.046880 -16.245277 11.784394 
-8.772456 49.923321 61.602242 -35.102676 -7.845706 157.931091 0.000000 0.000000 0.000000 27.281300 -1.145717 5.991140 18.069931 -9.688940 -3.878985 -34.508339 8.254923 -6.375220 -24.182207 -12.235818 -2.979469 -31.823320 -48.689220 -1.264970 -3.295209 -5.238370 0.057781 6.428005 -0.551158 24.961720 23.681170 13.460251 -3.300000 38.305801 34.443199 24.336327 26.843302 -8.490119 2.077352 -6.167795 6.441389 -0.530116 -48.750019 13.955354 5.237645 28.369099 -4.318000 -0.568870 -13.890153 11.234454 6.538363 -54.984386 3.007011 -0.016049 42.102940 9.800615 6.261766 -13.199712 -16.334698 11.700096 
-8.879976 49.880882 61.567768 -35.420624 -8.345856 157.290146 0.000000 0.000000 0.000000 27.742193 -1.305167 6.071406 18.206947 -9.836966 -3.759112 -35.054115 8.095613 -6.217075 -24.319704 -11.993401 -2.936710 -30.619249 -48.769062 -2.227204 -3.901313 -5.014835 0.044856 6.546264 -0.755549 24.310266 24.092365 13.052444 -3.251853 37.664352 35.304256 23.763187 26.517780 -8.632771 2.084878 -6.168391 6.548809 -0.832839 -49.549858 14.003587 5.294597 29.319614 -4.248750 -0.551066 -14.145879 11.639565 6.632976 -55.494045 3.652267 0.326811 40.667397 9.413620 6.188799 -13.271673 -16.379469 11.634070 
-8.986861 49.824123 61.532413 -35.743351 -8.849943 156.699127 0.000000 0.000000 0.000000 28.222679 -1.445670 6.147814 18.382027 -9.949732 -3.663629 -35.646759 7.916611 -6.059600 -24.486246 -11.736939 -2.903628 -29.425800 -48.802464 -3.113007 -4.517163 -4.750973 0.019705 6.684147 -0.969574 23.520954 24.463295 12.644332 -3.196094 36.923641 36.184174 23.104086 26.207792 -8.722842 2.089166 -6.178858 6.665941 -1.067774 -50.460445 14.020359 5.332288 30.426088 -4.151539 -0.643856 -14.401478 12.117846 6.637685 -56.078991 4.266839 0.665298 39.335663 9.020791 6.129463 -13.209638 -16.305960 11.570641 
-9.091950 49.750137 61.494770 -36.038738 -9.337553 156.146072 0.000000 0.000000 0.000000 28.732325 -1.558624 6.196269 18.564713 -10.018176 -3.574691 -36.276524 7.719704 -5.909057 -24.691135 -11.461076 -2.868734 -28.234970 -48.810661 -3.922074 -5.122988 -4.466674 -0.007296 6.861255 -1.202867 22.631685 24.794203 12.235670 -3.133672 36.085930 37.079563 22.371778 25.903894 -8.764796 2.082031 -6.189326 6.783073 -1.224582 -51.465660 14.039540 5.316225 31.678072 -4.024909 -0.835967 -14.677153 12.659854 6.670991 -56.712879 4.842903 1.025000 38.127876 8.613324 6.123368 -13.008037 -16.188356 11.421679 
-9.193905 49.655815 61.453369 -36.297604 -9.818526 155.653534 0.000000 0.000000 0.000000 29.280529 -1.627061 6.255643 18.774652 -10.041255 -3.493605 -36.912334 7.495624 -5.767866 -24.926222 -11.188211 -2.828577 -27.052938 -48.796249 -4.619601 -5.728047 -4.163723 -0.016646 7.048146 -1.426301 21.624666 25.066471 11.840147 -3.060735 35.137100 37.971199 21.548040 25.637062 -8.775012 2.077910 -6.199744 6.890439 -1.313030 -52.554695 14.032034 5.211159 33.109493 -3.893374 -1.184339 -14.961432 13.327973 6.659037 -57.394203 5.359893 1.358231 37.184471 8.239458 6.207489 -12.732531 -16.002913 11.110318 
-9.291460 49.537964 61.406876 -36.516594 -10.270168 155.214783 0.000000 0.000000 0.000000 29.857838 -1.677093 6.293198 19.001917 -10.021103 -3.429595 -37.554420 7.245381 -5.625243 -25.190254 -10.901540 -2.796462 -25.890060 -48.761662 -5.205899 -6.313297 -3.830755 -0.025344 7.254654 -1.649569 20.548147 25.291124 11.465830 -2.982499 34.095024 38.846409 20.638109 25.386974 -8.745309 2.068084 -6.190525 6.997913 -1.341738 -53.750542 14.004488 4.952140 34.742455 -3.763226 -1.593824 -15.240857 14.013506 6.612606 -58.142239 5.820430 1.643913 36.581722 7.855319 6.403469 -12.397909 -15.798465 10.515354 
-9.383659 49.393631 61.354321 -36.655647 -10.698832 154.837494 0.000000 0.000000 0.000000 30.483742 -1.708573 6.318563 19.256874 -9.966494 -3.386983 -38.184402 6.979227 -5.504378 -25.473478 -10.605656 -2.761140 -24.766350 -48.719498 -5.667893 -6.869028 -3.467693 -0.032492 7.470956 -1.862962 19.431688 25.478195 11.111953 -2.902011 32.961006 39.673512 19.647305 25.165266 -8.697011 2.055625 -6.161664 7.105495 -1.340003 -55.004112 13.933852 4.576919 36.576233 -3.640458 -2.066604 -15.513470 14.727522 6.553439 -58.912212 6.190838 1.912332 36.347954 7.530986 6.646134 -12.125092 -15.588136 9.676346 
-9.469995 49.220436 61.295204 -36.715233 -11.113894 154.536926 0.000000 0.000000 0.000000 31.138529 -1.713697 6.357383 19.558659 -9.867153 -3.365347 -38.803402 6.704495 -5.401006 -25.805059 -10.294676 -2.714364 -23.677258 -48.670219 -6.040439 -7.365953 -3.104815 -0.031103 7.687423 -2.086071 18.335051 25.607859 10.779242 -2.818388 31.753771 40.432095 18.560526 24.982189 -8.628242 2.000225 -6.152331 7.193438 -1.261292 -56.339493 13.825569 4.004541 38.669281 -3.576347 -2.526468 -15.785648 15.396530 6.484491 -59.709179 6.473155 2.088664 36.588837 7.208455 7.008617 -11.969196 -15.448766 8.492783 
-9.550305 49.016926 61.229576 -36.692413 -11.501005 154.309738 0.000000 0.000000 0.000000 31.842157 -1.717459 6.374963 19.917246 -9.725598 -3.384688 -39.429478 6.406191 -5.313632 -26.166491 -9.983260 -2.669038 -22.602484 -48.652184 -6.350732 -7.794295 -2.722862 -0.019455 7.894288 -2.318970 17.287825 25.690695 10.471562 -2.743829 30.497419 41.107845 17.388521 24.818207 -8.556124 1.999798 -6.074350 7.301284 -1.189575 -57.782928 13.681846 3.267376 41.009846 -3.619249 -2.984436 -15.997039 15.984231 6.419186 -60.554420 6.640206 2.178025 37.310825 6.892118 7.482129 -12.026891 -15.427510 7.061027 
-9.624620 48.782719 61.157963 -36.579029 -11.878377 154.161911 0.000000 0.000000 0.000000 32.584389 -1.695275 6.416660 20.331980 -9.532943 -3.438739 -40.073555 6.090723 -5.259374 -26.587589 -9.674478 -2.620813 -21.543087 -48.653618 -6.661297 -8.115244 -2.341281 -0.000776 8.062301 -2.571647 16.369856 25.736191 10.187714 -2.662724 29.206882 41.683292 16.101778 24.692923 -8.463328 1.954967 -6.055131 7.379514 -1.041946 -59.307255 13.484017 2.351970 43.622948 -3.749272 -3.374897 -16.106640 16.468601 6.356071 -61.438454 6.697830 2.187231 38.493572 6.563696 8.053543 -12.277892 -15.513583 5.440780 
-9.692932 48.518433 61.081024 -36.393036 -12.236076 154.082504 0.000000 0.000000 0.000000 33.345825 -1.656251 6.459151 20.803364 -9.298758 -3.532373 -40.744946 5.751635 -5.240690 -27.048088 -9.360838 -2.583173 -20.455877 -48.689491 -7.061782 -8.338754 -1.969662 0.021655 8.181738 -2.853962 15.659842 25.753124 9.909955 -2.589041 27.888924 42.130608 14.719212 24.597950 -8.378317 1.919669 -5.996561 7.448186 -0.843198 -60.974949 13.251817 1.295591 46.507885 -4.013865 -3.689237 -16.140610 16.771582 6.376275 -62.367378 6.629475 2.073647 40.129677 6.247269 8.756025 -12.708249 -15.770379 3.728661 
-9.754988 48.225487 60.999191 -36.133850 -12.574542 154.080414 0.000000 0.000000 0.000000 34.135948 -1.584471 6.533337 21.321598 -9.025581 -3.668630 -41.433655 5.385248 -5.246947 -27.579378 -9.067199 -2.553048 -19.295944 -48.762928 -7.633455 -8.455575 -1.645099 0.029692 8.233157 -3.185613 15.236509 25.750139 9.624312 -2.506006 26.555902 42.454578 13.252756 24.563614 -8.313982 1.917152 -5.928003 7.487609 -0.653644 -62.740765 12.987821 0.133701 49.626053 -4.415277 -3.949684 -16.057987 16.913158 6.496885 -63.351997 6.443438 1.870942 42.121384 5.905370 9.601386 -13.268368 -16.188713 2.006361 
-9.810196 47.905849 60.912445 -35.840508 -12.887771 154.132187 0.000000 0.000000 0.000000 34.944874 -1.473063 6.626973 21.858057 -8.730980 -3.830605 -42.161816 5.009792 -5.293155 -28.141590 -8.790908 -2.529643 -18.043848 -48.857273 -8.437946 -8.464872 -1.381421 0.049146 8.216274 -3.537314 15.139953 25.757715 9.338261 -2.426105 25.203568 42.631405 11.695455 24.569340 -8.251494 1.889305 -5.888706 7.487813 -0.426745 -64.616936 12.714519 -1.092963 52.929821 -4.935303 -4.182934 -15.862328 16.829481 6.744738 -64.360023 6.170884 1.582754 44.436607 5.553790 10.550005 -13.930963 -16.732723 0.332257 
-9.857739 47.561832 60.820316 -35.502724 -13.177135 154.216003 0.000000 0.000000 0.000000 35.782627 -1.331067 6.735912 22.393684 -8.425558 -4.018060 -42.901699 4.641711 -5.351051 -28.724085 -8.523671 -2.510042 -16.693583 -48.965870 -9.495892 -8.405893 -1.177119 0.069162 8.130940 -3.899297 15.340384 25.786379 9.060240 -2.353237 23.806908 42.682934 10.088823 24.634819 -8.196033 1.876904 -5.819784 7.458872 -0.196860 -66.579964 12.450716 -2.260197 56.394588 -5.492667 -4.400760 -15.553357 16.517282 7.130025 -65.417946 5.830071 1.187643 46.939590 5.165625 11.555468 -14.621702 -17.364252 -1.166279 
-9.896725 47.195942 60.721909 -35.147167 -13.421668 154.300568 0.000000 0.000000 0.000000 36.649357 -1.159667 6.861917 22.921062 -8.149320 -4.209351 -43.646488 4.312163 -5.429107 -29.307297 -8.271026 -2.481410 -15.204594 -49.069527 -10.826473 -8.317333 -1.033557 0.099267 7.986654 -4.242174 15.798175 25.864840 8.776152 -2.296175 22.371803 42.613289 8.467513 24.730457 -8.148556 1.873407 -5.750767 7.410394 0.002453 -68.606003 12.215633 -3.350616 59.911591 -6.049471 -4.698956 -15.215757 16.083826 7.611711 -66.457657 5.448289 0.720154 49.570854 4.754653 12.576182 -15.366811 -17.981871 -2.547850 
-9.926353 46.810699 60.616188 -34.766327 -13.638365 154.383179 0.000000 0.000000 0.000000 37.545448 -0.975658 6.984517 23.400934 -7.905743 -4.409815 -44.385883 4.020709 -5.518941 -29.869787 -8.007435 -2.447480 -13.608294 -49.145508 -12.352606 -8.230921 -0.938108 0.052926 7.802946 -4.565782 16.511400 26.004606 8.515972 -2.237681 20.879732 42.462555 6.811804 24.822020 -8.044676 1.874724 -5.681707 7.352146 0.231064 -70.667305 12.030432 -4.290204 63.434700 -6.548267 -5.071056 -14.934559 15.521359 8.087267 -67.506622 5.058484 0.162051 52.216232 4.295283 13.526573 -16.055994 -18.533176 -3.767014 
-9.946023 46.408699 60.502308 -34.388439 -13.813983 154.426773 0.000000 0.000000 0.000000 38.461250 -0.780001 7.114763 23.804445 -7.708214 -4.586235 -45.073261 3.799134 -5.627996 -30.362623 -7.739758 -2.395962 -11.942182 -49.192520 -14.027007 -8.162748 -0.888384 0.049341 7.579515 -4.831035 17.266720 26.215166 8.275329 -2.188759 19.305618 42.256531 5.130594 24.883301 -7.928081 1.855159 -5.593011 7.293990 0.499884 -72.721222 11.913300 -5.055838 66.876015 -6.920600 -5.535796 -14.748981 14.908358 8.466974 -68.528816 4.657786 -0.444084 54.836456 3.807389 14.381677 -16.783684 -18.918274 -4.809257 
-9.955336 45.992565 60.379726 -34.013447 -13.947962 154.441940 0.000000 0.000000 0.000000 39.397076 -0.596191 7.225122 24.132128 -7.565128 -4.745753 -45.717094 3.637647 -5.742742 -30.796097 -7.466075 -2.347962 -10.248028 -49.197392 -15.738150 -8.142839 -0.841431 0.065654 7.365368 -5.037579 17.962889 26.478310 8.077061 -2.166324 17.666340 42.023445 3.464046 24.892006 -7.765456 1.834945 -5.474955 7.255496 0.829020 -74.746750 11.864407 -5.616332 70.183968 -7.154959 -6.089420 -14.743096 14.310566 8.644850 -69.497581 4.296514 -1.065395 57.374496 3.318820 15.080729 -17.569452 -19.157639 -5.803669 
